<?xml version="1.0" encoding="UTF-8" standalone="no"?>
<svg
   version="1.1"
   id="Capa_1"
   x="0px"
   y="0px"
   width="21"
   height="21"
   viewBox="0 0 17.741062 17.741062"
   xml:space="preserve"
   class=""
   sodipodi:docname="tag_indicator_dark.svg"
   inkscape:version="1.3 (0e150ed6c4, 2023-07-21)"
   xmlns:inkscape="http://www.inkscape.org/namespaces/inkscape"
   xmlns:sodipodi="http://sodipodi.sourceforge.net/DTD/sodipodi-0.dtd"
   xmlns="http://www.w3.org/2000/svg"
   xmlns:svg="http://www.w3.org/2000/svg"
   xmlns:rdf="http://www.w3.org/1999/02/22-rdf-syntax-ns#"
   xmlns:cc="http://creativecommons.org/ns#"
   xmlns:dc="http://purl.org/dc/elements/1.1/"><metadata
   id="metadata13"><rdf:RDF><cc:Work
       rdf:about=""><dc:format>image/svg+xml</dc:format><dc:type
         rdf:resource="http://purl.org/dc/dcmitype/StillImage" /></cc:Work></rdf:RDF></metadata><defs
   id="defs11" /><sodipodi:namedview
   pagecolor="#ffffff"
   bordercolor="#666666"
   borderopacity="1"
   objecttolerance="10"
   gridtolerance="10"
   guidetolerance="10"
   inkscape:pageopacity="0"
   inkscape:pageshadow="2"
   inkscape:window-width="1455"
   inkscape:window-height="1403"
   id="namedview9"
   showgrid="false"
   inkscape:zoom="11.335806"
   inkscape:cx="21.171852"
   inkscape:cy="29.684701"
   inkscape:window-x="1080"
   inkscape:window-y="340"
   inkscape:window-maximized="0"
   inkscape:current-layer="Capa_1"
   inkscape:showpageshadow="2"
   inkscape:pagecheckerboard="0"
   inkscape:deskcolor="#d1d1d1" /><g
   id="g6"
   transform="matrix(0.02343771,0,0,0.0234375,3.8016106,3.801656)"><g
     id="g4">&#10;	<path
   d="M 421.985,229.833 217.847,25.981 C 210.612,18.743 200.907,12.607 188.726,7.565 176.541,2.522 165.407,0 155.318,0 H 36.547 C 26.648,0 18.083,3.619 10.85,10.848 3.617,18.081 0.002,26.646 0.002,36.545 v 118.771 c 0,10.088 2.519,21.219 7.564,33.404 5.045,12.185 11.182,21.792 18.417,28.837 L 230.118,421.98 c 7.043,7.043 15.602,10.564 25.697,10.564 9.89,0 18.558,-3.521 25.98,-10.564 L 421.981,281.51 c 7.043,-7.046 10.561,-15.604 10.561,-25.693 0,-9.898 -3.518,-18.559 -10.557,-25.984 z M 117.202,117.201 c -7.142,7.138 -15.752,10.709 -25.841,10.709 -10.085,0 -18.699,-3.571 -25.837,-10.709 -7.138,-7.139 -10.706,-15.749 -10.706,-25.837 0,-10.089 3.568,-18.702 10.706,-25.837 7.139,-7.139 15.752,-10.71 25.837,-10.71 10.089,0 18.702,3.571 25.841,10.71 7.135,7.135 10.706,15.749 10.706,25.837 0,10.088 -3.567,18.698 -10.706,25.837 z"
   data-original="#000000"
   class="active-path"
   data-old_color="#000000"
   fill="#2e2f30"
   id="path2" />&#10;</g></g> </svg>
